<?xml version="1.0" encoding="UTF-8"?>
<svg width="248px" height="140px" viewBox="0 0 248 140" version="1.1" xmlns="http://www.w3.org/2000/svg" xmlns:xlink="http://www.w3.org/1999/xlink">
    <title>Logo/MIT-AgeLab</title>
    <g id="Symbols" stroke="none" stroke-width="1" fill="none" fill-rule="evenodd">
        <g id="Sidebar/Colors" transform="translate(-32.000000, -18.000000)">
            <g id="Group" transform="translate(32.000000, 16.000000)">
                <g id="Logo-MITAgeLab" transform="translate(0.000037, 2.214129)">
                    <g id="Group-3" transform="translate(105.119581, 0.000000)" fill="#E81C32">
                        <path d="M129.544471,78.4143776 L124.806571,78.4143776 L124.806571,58.1213536 L127.283442,58.1213536 C131.105754,58.1213536 134.711496,59.1176529 134.711496,63.6930331 C134.711496,65.1728736 133.902915,66.895215 132.531178,67.5412756 L132.531178,67.5938662 C134.92478,68.0259124 136.596356,70.3665583 136.596356,72.7345952 C136.596356,76.7997738 133.121726,78.4143776 129.544471,78.4143776 L129.544471,78.4143776 Z M115.135749,78.3913692 L108.2588,62.8037411 L101.288722,78.4143776 L98.5675253,78.4143776 L108.2588,57.2598177 L117.947518,78.3913692 L115.135749,78.3913692 Z M91.8304531,78.4143776 L82.467139,78.4143776 L82.467139,56.5611664 L85.1934492,56.5611664 L85.1934492,75.9199773 L91.8304531,75.9199773 L91.8304531,78.4143776 Z M72.4690858,60.4360694 L64.0991493,60.4360694 L64.0991493,66.114391 L72.2265848,66.114391 L72.2265848,68.4283764 L64.0991493,68.4283764 L64.0991493,76.0985661 L72.4690858,76.0985661 L72.4690858,78.4143776 L61.5685929,78.4143776 L61.5685929,58.1213536 L72.4690858,58.1213536 L72.4690858,60.4360694 Z M52.3378509,68.9948208 C52.3378509,74.5650395 48.4088965,78.8438673 42.7294793,78.8438673 C37.0507925,78.8438673 32.4757774,73.9456393 32.4757774,68.3220996 C32.4757774,62.481989 37.1596258,57.6914987 42.9997364,57.6914987 C46.1467712,57.6914987 49.2689715,59.1176529 51.2612049,61.6215487 L49.484812,63.316134 C48.0316321,61.3253615 45.5828833,60.0054841 43.1060132,60.0054841 C38.5580238,60.0054841 35.006699,63.6930331 35.006699,68.2410225 C35.006699,72.4931898 38.5054333,76.5298819 42.8912683,76.5298819 C46.0404944,76.5298819 49.4307606,73.8112412 49.538133,70.5024173 L44.2896664,70.5024173 L44.2896664,68.1880667 L52.3378509,68.1880667 L52.3378509,68.9948208 Z M23.3363385,78.3588653 L15.943345,61.6032881 L8.43567477,78.4143776 L5.50995866,78.4143776 L15.943345,55.6342575 L26.3427665,78.3588653 L23.3363385,78.3588653 Z M71.439187,0 C31.9842016,0 0,31.2428206 0,69.7855055 C0,108.326364 31.9842016,139.572107 71.439187,139.572107 C110.895633,139.572107 142.880565,108.326364 142.880565,69.7855055 C142.880565,31.2428206 110.895633,0 71.439187,0 L71.439187,0 Z M128.89768,69.1288537 L127.336763,69.1288537 L127.336763,76.1529827 L129.275675,76.1529827 C131.616686,76.1529827 134.064704,75.4528707 134.064704,72.5739017 C134.064704,69.7208629 131.160171,69.1288537 128.89768,69.1288537 L128.89768,69.1288537 Z M132.342728,63.7189632 C132.342728,60.8659244 130.404546,60.3823832 128.035779,60.3823832 L127.336763,60.3823832 L127.336763,67.1106903 L127.983919,67.1106903 C130.378981,67.1106903 132.342728,66.6275143 132.342728,63.7189632 L132.342728,63.7189632 Z" id="Fill-1"></path>
                    </g>
                    <path d="M32.0459225,70.4481833 C31.881577,66.0108533 31.7172314,60.6973789 31.7172314,55.2743407 L31.6076677,55.2743407 C30.402467,59.9852148 28.8685751,65.2439074 27.4446122,69.5716737 L22.9525003,83.9785703 L16.4338251,83.9785703 L12.4895318,69.7360192 C11.2843311,65.3534711 10.0794955,60.1495603 9.14820405,55.2743407 L9.03827514,55.2743407 C8.87429479,60.259124 8.65516739,65.9560714 8.43603998,70.557747 L7.7238759,84.5811707 L0,84.5811707 L2.35561963,47.6600285 L13.4756051,47.6600285 L17.0912074,60.0399966 C18.2964081,64.257834 19.3920451,68.8595096 20.2137729,73.1872759 L20.4329003,73.1872759 C21.4186085,68.9142914 22.678591,64.0938537 23.9385736,59.9304329 L27.8280851,47.6600285 L38.7837251,47.6600285 L40.7558717,84.5811707 L32.6485229,84.5811707 L32.0459225,70.4481833 Z" id="Fill-4" fill="#626469"></path>
                    <polygon id="Fill-6" fill="#626469" points="47.2215546 84.5811707 55.5480309 84.5811707 55.5480309 47.6596633 47.2215546 47.6596633"></polygon>
                    <polygon id="Fill-8" fill="#626469" points="69.954891 54.6716673 59.9849591 54.6716673 59.9849591 47.6599555 88.3608628 47.6599555 88.3608628 54.6716673 78.2813672 54.6716673 78.2813672 84.5810976 69.954891 84.5810976"></polygon>
                </g>
            </g>
        </g>
    </g>
</svg>